<svg xmlns="http://www.w3.org/2000/svg" viewBox="5500 3500 5000 7500">
  <path fill="#4B14AE" d="M9613.28 4173.29c999.36,0.77 2400.25,433.43 2400.25,1790.58l0 98.77c0,185.17 -148.23,333.4 -333.4,333.4l-768.71 0 -104.67 0c18.71,-13.28 36.25,-28.09 52.44,-44.28 73.8,-73.84 119.32,-175.95 119.32,-289.12l0 -98.77c0,-636.84 -208.7,-1079.7 -534.17,-1374.62 -230.39,-208.88 -518.32,-341.78 -831.06,-415.96z"/>
  <path fill="#FC7B04" d="M9140.91 4183.24c904.17,71.11 1719.55,538.78 1719.55,1780.63l0 98.77c0,185.22 -148.19,333.4 -333.4,333.4l-232.83 0c16.96,-12.04 32.93,-25.33 47.79,-39.75l4.61 -4.27c73.89,-73.89 119.41,-176.17 119.41,-289.38l0 -98.77c0,-636.71 -208.79,-1079.48 -534.25,-1374.45 -220.54,-199.91 -493.72,-330.29 -790.88,-406.18z"/>
  <path fill="#4B14AE" d="M7031.8 9125.18c0,-866.97 0.04,-1862.07 0.04,-2729.13l-1199.36 0c-184.91,0 -333.4,-148.57 -333.4,-333.4l0 -98.77c0,-354.12 -73.2,-645.59 -163.26,-882.35 -153.75,-404.13 -357.37,-651.31 -335.11,-783.15 14.65,-86.95 87.54,-125.09 210.75,-125.09 1409.46,0 1751.29,0 3160.75,0 999.87,0 1975.79,432.79 1975.79,1790.58l0 98.77c0,184.66 -148.36,333.4 -333.4,333.4l-759.95 0c0,885.34 0,1898.76 0,2784.05 0,1328.2 -110.48,2334.48 1015.25,3328.21 333.74,294.62 734.03,525.37 1175.48,677.83 24.86,8.58 58.38,17.98 81.35,30.27 150.96,80.67 104.58,318.38 -9.19,446.92 -900.92,1017.89 -1911.6,903.14 -2648.53,465.84 -706.23,-419.08 -1220.49,-1071.54 -1522.34,-1899.78 -376.8,-1034 -314.87,-2031.52 -314.87,-3104.21z"/>
</svg>
