<?xml version="1.0" encoding="UTF-8"?>
<!DOCTYPE svg PUBLIC "-//W3C//DTD SVG 1.1//EN" "http://www.w3.org/Graphics/SVG/1.1/DTD/svg11.dtd">
<!-- Creator: CorelDRAW 2021 (64 Bit) -->
<svg xmlns="http://www.w3.org/2000/svg" xml:space="preserve" width="300mm" height="200mm" version="1.1" style="shape-rendering:geometricPrecision; text-rendering:geometricPrecision; image-rendering:optimizeQuality; fill-rule:evenodd; clip-rule:evenodd"
viewBox="0 0 30000 20000"
 xmlns:xlink="http://www.w3.org/1999/xlink"
 xmlns:xodm="http://www.corel.com/coreldraw/odm/2003">
 <defs>
  <style type="text/css">
   <![CDATA[
    .fil0 {fill:none}
    .fil1 {fill:#FEFEFE}
    .fil2 {fill:#FEFEFE;fill-rule:nonzero}
   ]]>
  </style>
 </defs>
 <g id="Camada_x0020_1">
  <metadata id="CorelCorpID_0Corel-Layer"/>
  <rect class="fil0" x="-2.93" y="7.58" width="30000" height="20000"/>
  <g id="_2186231405296">
   <path class="fil1" d="M13619.6 9965.61c0,693.72 -123.53,1014.85 -815.16,1014.85 -691.63,0 -815.15,-321.13 -815.15,-1014.85l0 -1093.06c0,-1000.45 -432.57,-1976.17 -1790.93,-1976.17l-98.8 0c-184.65,0 -333.47,148.81 -333.47,333.47l0 2735.76 0 247.06c0,1570.65 1395.69,2682.24 3038.35,2682.24 1642.67,0 3038.36,-1111.59 3038.36,-2682.24l0 -247.06 0 -2735.76c0,-184.66 -148.82,-333.47 -333.47,-333.47l-98.8 0c-1358.36,0 -1790.93,975.72 -1790.93,1976.17l0 1093.06z"/>
   <path class="fil1" d="M23008.54 6895.87l98.8 0c1222.57,0 1790.93,778.12 1790.93,1778.53 0,876.97 0,3825.28 0,3825.28 0,185.25 -160.57,333.47 -345.82,333.47l-1543.91 0c-185.25,0 -333.47,-148.22 -333.47,-333.47l0 -5270.34c0,-185.26 148.44,-333.47 333.47,-333.47zm778.13 -307.5c-666.94,0 -1210.39,-543.46 -1210.39,-1210.4 0,-666.98 543.45,-1210.44 1210.39,-1210.44 666.98,0 1210.4,543.46 1210.4,1210.44 0,666.94 -543.42,1210.4 -1210.4,1210.4z"/>
   <path class="fil1" d="M22312.77 12499.68c-317.32,-963.08 -1003.87,-2152.37 -1991.12,-2651.92 802.08,-531.58 1579.61,-1749.32 1917.01,-2618.42 86.46,-185.26 11.75,-333.47 -172.9,-333.47l-1704.48 0c-184.65,0 -407.58,148.21 -494.03,333.47 -439.83,957.22 -818.58,1698.78 -1320.04,1698.78 0,-1173.36 0,-1320.55 0,-1678.71 0,-1000.45 -433.08,-1976.17 -1790.93,-1976.17l-98.79 0c-184.44,0 -333.47,149.03 -333.47,333.47l0 6892.97c0,184.44 148.21,333.47 333.47,333.47l1556.25 0c185.25,0 333.47,-148.22 333.47,-333.47 0,0 0,-491.47 0,-1528.96 477.25,42.72 883.46,333.09 1381.81,1528.96 86.45,185.25 296.39,333.47 481.68,333.47l1704.43 0c185.3,0 271.75,-148.22 197.64,-333.47z"/>
   <path class="fil2" d="M14937.2 13324.11l-80.63 0c-308.44,0 -427.61,178.73 -511.71,427.61 -63.09,192.8 -147.24,494.18 -213.81,746.54 -66.62,-252.36 -150.72,-553.74 -213.81,-746.54 -84.15,-248.88 -203.27,-427.61 -511.71,-427.61l-84.16 0c-52.55,0 -77.09,42.07 -59.56,94.63l571.28 1556.21c21.06,52.56 77.15,94.64 129.71,94.64l332.98 0c52.55,0 112.17,-42.08 133.18,-94.64l571.33 -1556.21c17.48,-52.56 -10.53,-94.63 -63.09,-94.63zm686.97 0l-28.06 0c-308.44,0 -364.53,231.34 -364.53,476.69 0,248.83 0,1174.15 0,1174.15 0,52.56 42.08,94.64 94.63,94.64l297.96 0c52.56,0 94.64,-42.08 94.64,-94.64l0 -1556.21c0,-52.56 -42.08,-94.63 -94.64,-94.63zm-150.71 -213.81c154.19,0 280.37,-126.18 280.37,-280.37 0,-154.25 -126.18,-276.9 -280.37,-276.9 -150.72,0 -276.9,122.65 -276.9,276.9 0,154.19 126.18,280.37 276.9,280.37zm2099.47 213.81l-24.54 0c-157.72,0 -248.88,59.61 -301.44,150.71 -129.7,-84.1 -304.91,-164.72 -543.26,-164.72 -385.54,0 -760.59,353.99 -760.59,970.87 0,469.64 287.42,802.63 736.05,802.63 220.81,0 399.55,-94.64 525.73,-255.84 42.07,140.19 136.71,241.83 343.51,241.83l24.54 0c52.56,0 98.11,-42.08 98.11,-94.64l0 -1556.21c0,-52.56 -45.55,-94.63 -98.11,-94.63zm-799.14 1286.32c-199.8,0 -343.47,-108.64 -343.47,-350.47 0,-368.05 189.27,-476.69 431.1,-476.69 115.64,0 238.34,45.55 318.97,77.09l0 210.33c-10.53,368.01 -178.79,539.74 -406.6,539.74zm2747.9 -1286.32l-24.54 0c-157.73,0 -248.88,59.61 -301.44,150.71 -129.7,-84.1 -304.91,-164.72 -543.26,-164.72 -385.54,0 -760.6,353.99 -760.6,970.87 0,469.64 287.43,802.63 736.06,802.63 203.28,0 375.01,-80.63 501.23,-224.29l0 115.64c-7.05,234.82 -154.24,399.55 -389.06,399.55 -150.72,0 -364.53,-56.08 -424.09,-77.1 -45.6,-14.01 -126.23,0 -147.24,80.63l-73.62 259.36c-17.49,59.61 24.54,105.16 91.16,122.7 140.18,45.55 350.51,87.58 553.79,87.58 501.18,0 865.71,-382.01 879.72,-862.19l0 -1566.74c0,-52.56 -42.03,-94.63 -98.11,-94.63zm-799.15 1286.32c-199.8,0 -343.46,-108.64 -343.46,-350.47 0,-368.05 189.27,-476.69 431.09,-476.69 115.65,0 241.83,45.55 318.97,77.09l0 213.81c-10.53,364.53 -178.78,536.26 -406.6,536.26zm2590.18 -42.08c-35.07,-77.1 -115.69,-77.1 -157.72,-56.03 -112.17,52.55 -199.8,98.11 -403.08,98.11 -161.25,0 -297.91,-77.1 -368.05,-199.8 122.7,-10.48 262.89,-21.01 420.61,-35.02 420.61,-31.55 792.14,-220.81 620.41,-651.96 -108.69,-273.37 -375.06,-413.55 -697.51,-413.55 -490.7,0 -886.77,396.07 -886.77,886.77 0,490.66 399.6,886.73 911.31,886.73 227.82,0 354,-28.02 599.35,-133.19 63.09,-28.01 98.11,-77.09 70.09,-133.18 -31.54,-73.62 -77.09,-178.74 -108.64,-248.88zm-567.8 -844.7c126.18,-10.48 217.28,63.14 231.29,154.25 17.54,98.16 -101.63,122.65 -213.8,129.7 -115.65,10.49 -269.85,21.02 -410.08,31.55 52.6,-168.26 189.26,-297.96 392.59,-315.5zm1959.24 -413.55c-217.29,0 -399.55,94.63 -525.73,259.36 -42.07,-143.72 -136.71,-245.35 -343.51,-245.35l-24.54 0c-52.56,0 -98.11,42.07 -98.11,94.63l0 1556.21c0,52.56 45.55,94.64 98.11,94.64l297.96 0c52.56,0 94.63,-42.08 94.63,-94.64 0,0 0,-322.45 0,-637.89 7.01,-378.54 175.21,-553.79 406.55,-553.79 199.8,0 318.98,87.62 318.98,287.42l0 904.26c0,52.56 42.02,94.64 94.63,94.64l301.44 0c52.56,0 94.63,-42.08 94.63,-94.64l0 -942.86c0,-427.56 -266.41,-721.99 -715.04,-721.99zm2194.11 1181.15c0,-368 -361,-459.16 -522.2,-515.19 -129.71,-45.6 -252.36,-63.09 -252.36,-136.71 0,-49.08 56.04,-80.62 133.18,-80.62 147.2,0 266.37,45.55 329.46,63.08 45.55,10.54 122.65,-3.47 143.71,-87.62 21.02,-84.11 42.03,-164.73 59.56,-238.35 14.01,-63.09 -28.01,-98.11 -98.11,-119.18 -129.7,-38.55 -301.43,-66.56 -466.16,-66.56 -364.53,0 -592.34,252.35 -592.34,553.79 0,371.53 361,487.18 497.71,529.25 168.2,49.03 276.89,91.11 276.89,154.2 0,49.08 -17.53,87.63 -175.26,87.63 -147.24,0 -294.43,-35.07 -357.52,-52.56 -45.55,-14.06 -122.65,-3.53 -147.19,80.62 -21.06,77.1 -49.08,164.73 -66.61,238.3 -17.54,59.61 24.54,105.17 91.15,122.7 140.19,42.03 304.92,59.57 504.71,59.57 427.57,0 641.38,-248.83 641.38,-592.35z"/>
   <path class="fil2" d="M9612.24 4181.72c999.55,0.76 2400.71,433.5 2400.71,1790.92l0 98.8c0,185.21 -148.26,333.47 -333.47,333.47l-768.86 0 -104.69 0c18.71,-13.29 36.26,-28.11 52.45,-44.3 73.81,-73.85 119.35,-175.98 119.35,-289.17l0 -98.8c0,-636.96 -208.75,-1079.9 -534.27,-1374.89 -230.45,-208.91 -518.43,-341.84 -831.22,-416.03z"/>
   <path class="fil2" d="M9139.77 4191.67c904.35,71.12 1719.89,538.88 1719.89,1780.97l0 98.8c0,185.25 -148.22,333.47 -333.47,333.47l-232.88 0c16.96,-12.05 32.94,-25.33 47.8,-39.77l4.61 -4.27c73.9,-73.9 119.43,-176.2 119.43,-289.43l0 -98.8c0,-636.83 -208.83,-1079.69 -534.35,-1374.72 -220.58,-199.94 -493.82,-330.35 -791.03,-406.25z"/>
   <path class="fil1" d="M7030.24 9134.56c0,-867.14 0.05,-1862.42 0.05,-2729.65l-1199.59 0c-184.96,0 -333.47,-148.61 -333.47,-333.47l0 -98.8c0,-354.19 -73.22,-645.71 -163.3,-882.52 -153.77,-404.21 -357.43,-651.44 -335.18,-783.29 14.65,-86.97 87.57,-125.11 210.8,-125.11 1409.74,0 1751.62,0 3161.37,0 1000.07,0 1976.17,432.86 1976.17,1790.92l0 98.8c0,184.69 -148.39,333.47 -333.47,333.47l-760.1 0c0,885.51 0,1899.12 0,2784.58 0,1328.46 -110.5,2334.94 1015.45,3328.85 333.81,294.69 734.17,525.48 1175.71,677.97 24.86,8.58 58.39,17.98 81.37,30.28 150.99,80.69 104.61,318.44 -9.18,447.01 -901.11,1018.09 -1911.98,903.32 -2649.06,465.92 -706.37,-419.15 -1220.73,-1071.74 -1522.64,-1900.14 -376.86,-1034.2 -314.93,-2031.92 -314.93,-3104.82z"/>
  </g>
 </g>
</svg>
