<?xml version="1.0" encoding="UTF-8"?>
<!DOCTYPE svg PUBLIC "-//W3C//DTD SVG 1.1//EN" "http://www.w3.org/Graphics/SVG/1.1/DTD/svg11.dtd">
<!-- Creator: CorelDRAW 2021 (64 Bit) -->
<svg xmlns="http://www.w3.org/2000/svg" xml:space="preserve" width="300mm" height="200mm" version="1.1" style="shape-rendering:geometricPrecision; text-rendering:geometricPrecision; image-rendering:optimizeQuality; fill-rule:evenodd; clip-rule:evenodd"
viewBox="0 0 29994.14 19996.09"
 xmlns:xlink="http://www.w3.org/1999/xlink"
 xmlns:xodm="http://www.corel.com/coreldraw/odm/2003">
 <defs>
  <style type="text/css">
   <![CDATA[
    .fil0 {fill:none}
    .fil4 {fill:#4B14AE}
    .fil3 {fill:#201E1E;fill-rule:nonzero}
    .fil1 {fill:#4B14AE;fill-rule:nonzero}
    .fil2 {fill:#FC7B04;fill-rule:nonzero}
   ]]>
  </style>
 </defs>
 <g id="Camada_x0020_1">
  <metadata id="CorelCorpID_0Corel-Layer"/>
  <rect class="fil0" y="-0.02" width="29994.14" height="19996.09"/>
  <g id="_2186773232848">
   <path class="fil1" d="M13619.87 9956.07c0,693.58 -123.51,1014.65 -815,1014.65 -691.49,0 -815,-321.07 -815,-1014.65l0 -1092.85c0,-1000.25 -432.48,-1975.78 -1790.57,-1975.78l-98.78 0c-184.61,0 -333.4,148.78 -333.4,333.4l0 2735.23 0 247.01c0,1570.34 1395.42,2681.73 3037.76,2681.73 1642.35,0 3037.77,-1111.38 3037.77,-2681.73l0 -247.01 0 -2735.23c0,-184.62 -148.79,-333.4 -333.4,-333.4l-98.78 0c-1358.09,0 -1790.58,975.53 -1790.58,1975.78l0 1092.85z"/>
   <path class="fil1" d="M23006.99 6886.91l98.78 0c1222.33,0 1790.57,777.98 1790.57,1778.19 0,876.8 0,3824.53 0,3824.53 0,185.21 -160.53,333.4 -345.74,333.4l-1543.61 0c-185.21,0 -333.4,-148.19 -333.4,-333.4l0 -5269.32c0,-185.21 148.4,-333.4 333.4,-333.4zm777.97 -307.44c-666.81,0 -1210.15,-543.34 -1210.15,-1210.15 0,-666.86 543.34,-1210.2 1210.15,-1210.2 666.86,0 1210.16,543.34 1210.16,1210.2 0,666.81 -543.3,1210.15 -1210.16,1210.15z"/>
   <path class="fil1" d="M22311.35 12489.64c-317.27,-962.89 -1003.68,-2151.95 -1990.74,-2651.4 801.93,-531.48 1579.31,-1748.98 1916.65,-2617.92 86.43,-185.21 11.74,-333.4 -172.88,-333.4l-1704.14 0c-184.62,0 -407.5,148.19 -493.94,333.4 -439.74,957.04 -818.41,1698.46 -1319.78,1698.46 0,-1173.13 0,-1320.29 0,-1678.38 0,-1000.26 -433,-1975.79 -1790.57,-1975.79l-98.78 0c-184.4,0 -333.4,149 -333.4,333.4l0 6891.63c0,184.4 148.19,333.4 333.4,333.4l1555.95 0c185.21,0 333.4,-148.19 333.4,-333.4 0,0 0,-491.37 0,-1528.66 477.16,42.71 883.29,333.02 1381.54,1528.66 86.43,185.21 296.33,333.4 481.6,333.4l1704.1 0c185.25,0 271.69,-148.19 197.6,-333.4z"/>
   <path class="fil2" d="M14937.21 13313.91l-80.61 0c-308.38,0 -427.53,178.71 -511.61,427.53 -63.08,192.76 -147.21,494.09 -213.77,746.39 -66.61,-252.3 -150.69,-553.63 -213.77,-746.39 -84.13,-248.82 -203.23,-427.53 -511.62,-427.53l-84.13 0c-52.55,0 -77.08,42.07 -59.55,94.61l571.17 1555.92c21.06,52.55 77.13,94.61 129.67,94.61l332.92 0c52.54,0 112.15,-42.06 133.15,-94.61l571.22 -1555.92c17.48,-52.54 -10.53,-94.61 -63.08,-94.61zm686.84 0l-28.05 0c-308.38,0 -364.46,231.29 -364.46,476.6 0,248.78 0,1173.93 0,1173.93 0,52.55 42.07,94.61 94.61,94.61l297.9 0c52.55,0 94.62,-42.06 94.62,-94.61l0 -1555.92c0,-52.54 -42.07,-94.61 -94.62,-94.61zm-150.68 -213.77c154.16,0 280.32,-126.16 280.32,-280.32 0,-154.22 -126.16,-276.85 -280.32,-276.85 -150.69,0 -276.85,122.63 -276.85,276.85 0,154.16 126.16,280.32 276.85,280.32zm2099.06 213.77l-24.54 0c-157.69,0 -248.83,59.6 -301.38,150.69 -129.67,-84.08 -304.85,-164.7 -543.15,-164.7 -385.46,0 -760.44,353.92 -760.44,970.69 0,469.55 287.37,802.46 735.91,802.46 220.77,0 399.47,-94.61 525.63,-255.78 42.06,140.15 136.68,241.77 343.44,241.77l24.54 0c52.55,0 98.09,-42.06 98.09,-94.61l0 -1555.92c0,-52.54 -45.54,-94.61 -98.09,-94.61zm-798.98 1286.07c-199.76,0 -343.4,-108.62 -343.4,-350.4 0,-367.98 189.23,-476.6 431.02,-476.6 115.62,0 238.29,45.54 318.91,77.08l0 210.29c-10.53,367.93 -178.76,539.62 -406.52,539.62zm2747.36 -1286.07l-24.54 0c-157.69,0 -248.83,59.6 -301.38,150.69 -129.67,-84.08 -304.85,-164.7 -543.15,-164.7 -385.46,0 -760.45,353.92 -760.45,970.69 0,469.55 287.37,802.46 735.92,802.46 203.24,0 374.94,-80.61 501.14,-224.25l0 115.63c-7.06,234.77 -154.22,399.47 -388.99,399.47 -150.69,0 -364.46,-56.08 -424.01,-77.08 -45.59,-14.01 -126.21,0 -147.21,80.6l-73.61 259.31c-17.49,59.6 24.54,105.15 91.14,122.68 140.15,45.55 350.44,87.56 553.68,87.56 501.09,0 865.54,-381.94 879.55,-862.01l0 -1566.44c0,-52.54 -42.02,-94.61 -98.09,-94.61zm-798.99 1286.07c-199.75,0 -343.39,-108.62 -343.39,-350.4 0,-367.98 189.23,-476.6 431.01,-476.6 115.63,0 241.78,45.54 318.92,77.08l0 213.76c-10.54,364.46 -178.76,536.16 -406.53,536.16zm2589.67 -42.06c-35.06,-77.08 -115.67,-77.08 -157.69,-56.03 -112.15,52.55 -199.76,98.09 -402.99,98.09 -161.22,0 -297.85,-77.08 -367.99,-199.76 122.69,-10.48 262.84,-21.01 420.53,-35.01 420.54,-31.53 792,-220.77 620.29,-651.82 -108.67,-273.32 -374.98,-413.48 -697.36,-413.48 -490.61,0 -886.61,395.99 -886.61,886.6 0,490.56 399.52,886.56 911.14,886.56 227.77,0 353.92,-28.01 599.22,-133.15 63.08,-28.01 98.09,-77.08 70.09,-133.16 -31.54,-73.61 -77.08,-178.7 -108.63,-248.82zm-567.69 -844.54c126.16,-10.48 217.25,63.13 231.25,154.21 17.53,98.14 -101.62,122.63 -213.77,129.68 -115.63,10.48 -269.79,21.01 -410,31.53 52.6,-168.22 189.23,-297.9 392.51,-315.43zm1958.86 -413.48c-217.24,0 -399.47,94.61 -525.62,259.31 -42.07,-143.68 -136.68,-245.3 -343.45,-245.3l-24.54 0c-52.54,0 -98.09,42.07 -98.09,94.61l0 1555.92c0,52.55 45.55,94.61 98.09,94.61l297.9 0c52.55,0 94.62,-42.06 94.62,-94.61 0,0 0,-322.39 0,-637.78 7,-378.46 175.18,-553.68 406.47,-553.68 199.76,0 318.91,87.61 318.91,287.37l0 904.08c0,52.55 42.02,94.61 94.61,94.61l301.38 0c52.55,0 94.62,-42.06 94.62,-94.61l0 -942.68c0,-427.49 -266.37,-721.86 -714.91,-721.86zm2193.68 1180.93c0,-367.94 -360.93,-459.07 -522.1,-515.1 -129.67,-45.59 -252.3,-63.08 -252.3,-136.68 0,-49.07 56.02,-80.6 133.15,-80.6 147.16,0 266.31,45.54 329.39,63.08 45.55,10.53 122.63,-3.48 143.69,-87.61 21.01,-84.08 42.01,-164.7 59.55,-238.3 14.01,-63.08 -28.01,-98.09 -98.09,-119.15 -129.68,-38.54 -301.38,-66.56 -466.08,-66.56 -364.45,0 -592.22,252.31 -592.22,553.68 0,371.46 360.93,487.08 497.61,529.16 168.18,49.02 276.85,91.08 276.85,154.16 0,49.07 -17.54,87.61 -175.23,87.61 -147.21,0 -294.37,-35.06 -357.45,-52.55 -45.55,-14.05 -122.63,-3.52 -147.16,80.61 -21.07,77.08 -49.07,164.7 -66.61,238.25 -17.54,59.6 24.54,105.14 91.14,122.68 140.15,42.01 304.85,59.55 504.61,59.55 427.48,0 641.24,-248.78 641.24,-592.22z"/>
   <path class="fil3" d="M9613.28 4173.29c999.36,0.77 2400.25,433.43 2400.25,1790.58l0 98.77c0,185.17 -148.23,333.4 -333.4,333.4l-768.71 0 -104.67 0c18.71,-13.28 36.25,-28.09 52.44,-44.28 73.8,-73.84 119.32,-175.95 119.32,-289.12l0 -98.77c0,-636.84 -208.7,-1079.7 -534.17,-1374.62 -230.39,-208.88 -518.32,-341.78 -831.06,-415.96z"/>
   <path class="fil2" d="M9140.91 4183.24c904.17,71.11 1719.55,538.78 1719.55,1780.63l0 98.77c0,185.22 -148.19,333.4 -333.4,333.4l-232.83 0c16.96,-12.04 32.93,-25.33 47.79,-39.75l4.61 -4.27c73.89,-73.89 119.41,-176.17 119.41,-289.38l0 -98.77c0,-636.71 -208.79,-1079.48 -534.25,-1374.45 -220.54,-199.91 -493.72,-330.29 -790.88,-406.18z"/>
   <path class="fil4" d="M7031.8 9125.18c0,-866.97 0.04,-1862.07 0.04,-2729.13l-1199.36 0c-184.91,0 -333.4,-148.57 -333.4,-333.4l0 -98.77c0,-354.12 -73.2,-645.59 -163.26,-882.35 -153.75,-404.13 -357.37,-651.31 -335.11,-783.15 14.65,-86.95 87.54,-125.09 210.75,-125.09 1409.46,0 1751.29,0 3160.75,0 999.87,0 1975.79,432.79 1975.79,1790.58l0 98.77c0,184.66 -148.36,333.4 -333.4,333.4l-759.95 0c0,885.34 0,1898.76 0,2784.05 0,1328.2 -110.48,2334.48 1015.25,3328.21 333.74,294.62 734.03,525.37 1175.48,677.83 24.86,8.58 58.38,17.98 81.35,30.27 150.96,80.67 104.58,318.38 -9.19,446.92 -900.92,1017.89 -1911.6,903.14 -2648.53,465.84 -706.23,-419.08 -1220.49,-1071.54 -1522.34,-1899.78 -376.8,-1034 -314.87,-2031.52 -314.87,-3104.21z"/>
  </g>
 </g>
</svg>
